<svg xmlns="http://www.w3.org/2000/svg" xmlns:xlink="http://www.w3.org/1999/xlink" version="1.1" x="0px" y="0px" viewBox="0 0 100 125" enable-background="new 0 0 100 100" xml:space="preserve"><path d="M56.1,58.3c-1.8-2.3-4-4.3-6.6-5.9c-4.6,2.3-9.5,3.5-14.5,3.5c-6.6,0-13.1-2-18.6-6c0,0.1,0,0.1,0,0.2c0,3,0.4,5.9,1.2,8.7  C29,66,45.1,65.8,56.1,58.3z"/><path d="M62.2,73.2C56.2,77.5,46.8,80,37.9,80c-0.8,0-1.7,0-2.5-0.1c4.4,2.1,9.2,3.2,14.3,3.2c4.2,0,8.3-0.8,12.1-2.3  C62.2,78.3,62.4,75.7,62.2,73.2z"/><path d="M30.5,22.9c-1.5,1.1-2.9,2.3-4.3,3.6C21.2,31.6,17.9,38,16.9,45c2,1.7,4.1,3.1,6.4,4.2C22.5,41.3,25.5,30.8,30.5,22.9z"/><path d="M27.1,74.3c9.9,3.8,27.3,1,34.3-5.6c-0.6-2.5-1.7-4.9-3-7.1C52.1,65.9,44.3,68,36.5,68c-5.8,0-11.5-1.2-16.7-3.6  c1.6,3.3,3.7,6.3,6.4,9C26.5,73.7,26.8,74,27.1,74.3z"/><path d="M70,23.8c-2.4,0.9-4.7,2.1-6.8,3.6c7.3,3.2,15,10.9,19.4,19.1c-0.8-7.5-4.1-14.5-9.5-19.9C72.1,25.6,71.1,24.6,70,23.8z"/><path d="M53.5,40.2c-1,2.8-1.6,5.7-1.7,8.7C61.8,55.5,67.3,67,66.1,78.8c2.5-1.5,4.9-3.2,7-5.4c0.2-0.2,0.5-0.5,0.7-0.8  C74.1,59.3,65.6,45.7,53.5,40.2z"/><path d="M59.8,30.3c-1.8,1.8-3.4,3.9-4.6,6.2c12,5.5,20.9,18.1,22.5,31.3c2.2-3.4,3.8-7.3,4.6-11.3C80.3,46.3,68.9,33,59.8,30.3z"/><path d="M27.6,50.8c2.5,0.7,5.1,1,7.7,1c-1-13.2,5.6-27,16.4-34.9c-0.7,0-1.3-0.1-2-0.1c-3.4,0-6.8,0.5-10.1,1.6  C31.5,25.1,25.5,41.5,27.6,50.8z"/><path d="M57.7,17.8c-11.9,6.3-19.5,20.4-18.4,33.6c2.9-0.4,5.7-1.3,8.4-2.7c0.5-12,7.6-22.6,18.3-27.6  C63.4,19.7,60.6,18.6,57.7,17.8z"/><text x="0" y="115" fill="#000000" font-size="5px" font-weight="bold" font-family="'Helvetica Neue', Helvetica, Arial-Unicode, Arial, Sans-serif">Created by Christina Sicoli</text><text x="0" y="120" fill="#000000" font-size="5px" font-weight="bold" font-family="'Helvetica Neue', Helvetica, Arial-Unicode, Arial, Sans-serif">from the Noun Project</text></svg>