<svg xmlns:dc="http://purl.org/dc/elements/1.1/" xmlns:cc="http://creativecommons.org/ns#" xmlns:rdf="http://www.w3.org/1999/02/22-rdf-syntax-ns#" xmlns:svg="http://www.w3.org/2000/svg" xmlns="http://www.w3.org/2000/svg" xmlns:sodipodi="http://sodipodi.sourceforge.net/DTD/sodipodi-0.dtd" xmlns:inkscape="http://www.inkscape.org/namespaces/inkscape" viewBox="0 0 100 125" version="1.1" x="0px" y="0px"><defs><clipPath clipPathUnits="userSpaceOnUse" id="a"><path style="opacity:1;fill:#ea65a2;fill-opacity:1;stroke:none;stroke-width:2;stroke-linecap:butt;stroke-linejoin:miter;stroke-miterlimit:4;stroke-dasharray:none;stroke-dashoffset:0;stroke-opacity:1" d="m -15202.24,3150.6786 -13.9,0 -6.95,-12.0377 6.95,-12.0378 13.9,0 6.95,12.0378 z" transform="matrix(0.98920866,0,0,0.99686377,-164.12749,9.9760428)"/></clipPath></defs><g transform="translate(0,-952.36216)"><path style="color:#000000;font-style:normal;font-variant:normal;font-weight:normal;font-stretch:normal;font-size:medium;line-height:normal;font-family:sans-serif;text-indent:0;text-align:start;text-decoration:none;text-decoration-line:none;text-decoration-style:solid;text-decoration-color:#000000;letter-spacing:normal;word-spacing:normal;text-transform:none;direction:ltr;block-progression:tb;writing-mode:lr-tb;baseline-shift:baseline;text-anchor:start;white-space:normal;clip-rule:nonzero;display:inline;overflow:visible;visibility:visible;opacity:1;isolation:auto;mix-blend-mode:normal;color-interpolation:sRGB;color-interpolation-filters:linearRGB;solid-color:#000000;solid-opacity:1;fill:#000000;fill-opacity:1;fill-rule:nonzero;stroke:none;stroke-width:0.25;stroke-linecap:butt;stroke-linejoin:miter;stroke-miterlimit:4;stroke-dasharray:none;stroke-dashoffset:0;stroke-opacity:1;color-rendering:auto;image-rendering:auto;shape-rendering:auto;text-rendering:auto;enable-background:accumulate" d="m -15208.922,3124.643 c -0.364,0 -0.726,0.018 -1.086,0.049 l 0.01,0 c -3.904,0.3405 -7.561,2.4565 -9.982,5.3333 -2.206,2.6205 -3.374,6.29 -3.192,9.7185 0.08,1.3211 0.21,2.1193 0.586,3.3405 0.533,1.7407 1.118,2.9143 2.144,4.3004 1.319,1.7822 2.57,2.8464 4.602,3.9091 0.659,0.3449 1.209,0.5371 1.583,0.6688 5.147,1.2879 9.827,0.8889 13.908,-2.4807 3.997,-3.352 5.886,-8.6636 4.902,-13.7632 -0.273,-1.407 -0.885,-3.0448 -1.612,-4.3025 -0.371,-0.6422 -1.156,-1.7262 -1.639,-2.2623 -0.797,-0.8832 -1.931,-1.8343 -2.946,-2.467 -2.12,-1.3251 -4.737,-2.0528 -7.282,-2.046 z m -0.314,0.7614 c 0.519,-0.018 1.028,3e-4 1.546,0.055 l 0,0 c 1.038,0.1103 2.113,0.3722 3.385,0.8025 0.833,0.3287 2.235,1.0333 2.313,1.0723 l 0.133,1.501 c -0.09,0.049 -1.898,1.0328 -2.858,1.3417 -0.13,0.04 -0.215,0.048 -0.228,0.049 -0.03,-0.01 -3.677,-0.9231 -5.529,-1.2748 l -0.265,-0.4918 c -0.209,-0.3896 -0.452,-0.8152 -0.666,-1.1726 -0.214,-0.3566 -0.381,-0.6299 -0.502,-0.7751 l 0,-0.01 0.115,-0.2164 c 0.207,-0.3829 0.316,-0.5464 0.37,-0.5863 0.05,-0.038 0.189,-0.076 0.567,-0.1338 0.562,-0.088 1.094,-0.1428 1.615,-0.1612 z m -3.296,0.596 0,0 -0.121,0.2106 -0.489,0.1632 c -0.663,0.223 -2.117,0.8477 -3.205,1.3497 0.02,-0.016 0.05,-0.04 0.07,-0.055 1.026,-0.7194 1.513,-0.953 3.037,-1.4539 0.259,-0.085 0.488,-0.1522 0.708,-0.2164 z m 11.361,1.989 0,0 c 1.766,1.2772 3.105,2.9764 3.76,4.4401 l 0,0.01 c -0.111,0.023 -0.21,0.044 -0.249,0.051 -1.162,-1.336 -3.42,-3.4813 -3.469,-3.5273 0,-0.047 -0.03,-0.5537 -0.05,-0.9738 z m -16.902,1.0584 c -0.05,0.097 -0.1,0.1815 -0.155,0.295 -0.393,0.7384 -0.48,0.9492 -0.631,1.5148 -0.09,0.3367 -0.169,0.6942 -0.221,1.0033 -0.05,0.2968 -0.08,0.5314 -0.06,0.7241 l 0,0.012 0,0.045 c -0.946,1.4818 -1.959,2.9277 -2.892,4.4284 -0.08,0.016 -0.171,0.026 -0.26,0.037 0.02,-0.1019 0.04,-0.2078 0.06,-0.3147 0.08,-0.3628 0.136,-0.7193 0.24,-1.0505 0.4,-1.2766 0.843,-2.5498 1.501,-3.6985 0.506,-0.8857 1.251,-1.7691 1.879,-2.4552 0.283,-0.3087 0.436,-0.4601 0.536,-0.541 z m 7.627,0.6787 5.114,1.1882 c 0.02,0.054 0.329,0.8574 0.683,1.8926 0.361,1.0511 0.732,2.2726 0.841,3.0001 -0.06,0.063 -2.048,2.3323 -3.241,3.4073 -0.286,0.2551 -0.475,0.4474 -0.515,0.4879 -1.193,-0.1586 -3.517,-0.7653 -3.517,-0.7653 0,0 -1.223,-0.3421 -1.824,-0.6039 -0.02,-0.09 -0.949,-3.5137 -1.245,-4.9713 l 0,-0.059 0.713,-0.7161 c 0.504,-0.505 1.253,-1.2308 1.89,-1.8354 0.317,-0.3023 0.606,-0.5756 0.821,-0.7732 0.1,-0.09 0.185,-0.1696 0.28,-0.2518 z m -8.112,3.3974 0.108,0.01 c 1.307,0.098 2.499,0.2057 2.919,0.2617 0.143,0.019 0.291,0.042 0.415,0.064 0.06,0.011 0.12,0.021 0.165,0.031 0.03,0.01 0.04,0.013 0.05,0.016 l 0,0.035 0.01,0 c 0,0.036 0,0.07 0.02,0.116 l 0,0.012 c 0.41,1.8072 0.796,3.2515 1.24,4.9458 l -0.811,1.383 c -0.452,0.7691 -0.858,1.4531 -1.175,1.9712 -0.316,0.5165 -0.566,0.8959 -0.618,0.962 l 0,0.01 -0.117,0 c -1.28,-0.199 -3.614,-0.5741 -3.727,-0.5922 l -1.276,-4.9851 c 0.04,-0.061 1.834,-2.7828 2.794,-4.2297 l 0,-0.012 z m 21.52,0.025 0.208,0.5942 c 1.006,2.6379 1.047,5.5013 0.443,7.9361 -0.142,0.5687 -0.291,1.0652 -0.459,1.5974 -0.323,-0.1718 -0.649,-0.3419 -0.925,-0.5134 -0.255,-1.6854 -0.393,-3.6313 -0.587,-5.3079 l 0.21,-1.1843 c 0.116,-0.6518 0.248,-1.3638 0.36,-1.9436 0.112,-0.5629 0.206,-1.0078 0.231,-1.1036 0.171,-0.037 0.346,-0.056 0.519,-0.075 z m -6.176,3.0907 0.212,0.043 c 0.668,0.1366 1.28,0.3132 2.122,0.6118 0.447,0.159 1.086,0.4157 1.385,0.5548 l 0.428,0.2006 c 0.149,1.8737 0.466,4.9817 0.473,5.052 -1.075,1.4971 -2.55,2.8953 -3.762,3.9405 l -4.171,-1.5109 c -0.02,-1.7806 -0.575,-4.8498 -0.587,-4.9162 1.379,-1.3321 3.837,-3.9097 3.9,-3.9759 z m -16.76,6.9131 0,0 c 1.077,0.091 2.192,0.3133 3.194,0.4504 0.205,0.026 0.395,0.053 0.535,0.075 0.08,0.013 0.131,0.019 0.165,0.025 0.05,0.037 0.191,0.1604 0.376,0.3503 0.205,0.2098 0.462,0.4879 0.744,0.8045 0.56,0.6336 1.225,1.4226 1.8,2.1543 l 0.492,0.6276 c -0.102,0.916 -0.296,1.7928 -0.306,2.6459 -1.307,-0.1859 -2.423,-0.3889 -3.737,-0.537 -0.05,0 -0.171,-0.036 -0.27,-0.07 -0.101,-0.034 -0.18,-0.066 -0.18,-0.066 l -0.03,-0.01 c -0.162,-0.088 -0.354,-0.2168 -0.605,-0.419 -1.123,-0.9653 -2.023,-2.0799 -2.666,-3.2519 0.01,-0.064 0.291,-1.7957 0.481,-2.7778 z m 13.179,2.6932 4.174,1.5305 c -0.02,0.1316 -0.381,2.0403 -0.677,3.0513 -0.02,0.059 -0.04,0.096 -0.04,0.1082 0,0.01 -0.01,0.017 -0.02,0.025 -1.821,0.9507 -3.046,1.4193 -4.664,1.4145 -1.115,-0.3141 -2.283,-0.7125 -3.313,-1.1272 l 0,0 c -0.312,-0.1163 -0.582,-0.2658 -0.872,-0.4367 0,-0.9168 0.09,-1.7372 0.324,-2.6106 0.05,-0.1365 0.04,-0.1131 0.169,-0.1908 0.09,-0.052 0.321,-0.1641 0.631,-0.2931 0.309,-0.1291 0.695,-0.2797 1.108,-0.4329 0.829,-0.3066 1.78,-0.6307 2.499,-0.84 l 0.683,-0.1967 z" clip-path="url(#a)" transform="matrix(3.1413613,0,0,3.1413613,47827.562,-8857.6583)"/><path style="color:#000000;font-style:normal;font-variant:normal;font-weight:normal;font-stretch:normal;font-size:medium;line-height:normal;font-family:sans-serif;text-indent:0;text-align:start;text-decoration:none;text-decoration-line:none;text-decoration-style:solid;text-decoration-color:#000000;letter-spacing:normal;word-spacing:normal;text-transform:none;direction:ltr;block-progression:tb;writing-mode:lr-tb;baseline-shift:baseline;text-anchor:start;white-space:normal;clip-rule:nonzero;display:inline;overflow:visible;visibility:visible;opacity:1;isolation:auto;mix-blend-mode:normal;color-interpolation:sRGB;color-interpolation-filters:linearRGB;solid-color:#000000;solid-opacity:1;fill:#000000;fill-opacity:1;fill-rule:nonzero;stroke:none;stroke-width:1.00702012;stroke-linecap:butt;stroke-linejoin:miter;stroke-miterlimit:4;stroke-dasharray:none;stroke-dashoffset:0;stroke-opacity:1;color-rendering:auto;image-rendering:auto;shape-rendering:auto;text-rendering:auto;enable-background:accumulate" d="m 27.498454,963.08996 -22.4984294,39.27234 22.4984294,39.2721 45.003142,0 0.449215,-0.7888 22.049215,-38.4833 -22.49843,-39.27234 -45.003142,0 z m 1.806283,3.15581 41.390576,0 20.695289,36.11653 -20.695289,36.1225 -41.390576,0 -20.6952883,-36.1225 20.6952883,-36.11653 z"/></g><!-- <text x="0" y="115" fill="#000000" font-size="5px" font-weight="bold" font-family="'Helvetica Neue', Helvetica, Arial-Unicode, Arial, Sans-serif">Created by anbileru adaleru</text><text x="0" y="120" fill="#000000" font-size="5px" font-weight="bold" font-family="'Helvetica Neue', Helvetica, Arial-Unicode, Arial, Sans-serif">from the Noun Project</text> --></svg>
