<svg xmlns="http://www.w3.org/2000/svg" xmlns:xlink="http://www.w3.org/1999/xlink" version="1.1" x="0px" y="0px" viewBox="0 0 100 125" enable-background="new 0 0 100 100" xml:space="preserve"><path fill="#000000" d="M50,5c-0.8,0-1.7,0-2.5,0.1c-0.1,0-0.1,0-0.1,0l0,0.1C23.8,6.4,5,26.1,5,50c0,24.8,20.2,45,45,45  s45-20.2,45-45S74.8,5,50,5z M88.9,30.5l-1.3,5.2c-2.9-3-11.9-11.7-22.5-13.7C60.2,13,54.3,8.6,50.7,6.5  C67.4,6.8,81.8,16.5,88.9,30.5z M87.3,67.9c-11.5,7.4-26.4,8.1-29,8.2c-3.7-5.9-12.2-25.5-13.2-27.8c1.1-5,14.2-19.3,19.7-24.8  c11.5,2.2,21.5,12.9,22.5,14.1C90.7,47.4,87.7,65.3,87.3,67.9z M15.3,23.8c7.4-9.8,18.9-16.4,32-17.2c1.8,0.7,10,4.3,16.3,16  c-2.7,2.8-17.9,18.4-19.8,25c-11.5-1.5-24.8-3.2-27.9-3.3C15.3,41.9,14.6,28.5,15.3,23.8z M6.5,50c0-8.8,2.6-16.9,7.1-23.8  c-0.2,5.7,0.1,16.2,1,18.7c-0.9,1.9-4.9,11-6,18.4C7.3,59.2,6.5,54.7,6.5,50z M9.9,66.8c-0.1-7.2,4.9-18.8,6-21.1  c2.7,0.2,17.6,2,27.9,3.4c1.3,3.1,9.3,21.6,13.1,27.7c-2,2.1-11.1,11.1-18.9,15C25.3,88.1,15,78.9,9.9,66.8z M50,93.5  c-3.4,0-6.7-0.4-9.8-1.1c8-4.5,16.5-13.2,18.1-14.7c2.5,0,17.7-0.6,29.8-8.3l0.7,0.5C81.5,83.8,66.8,93.5,50,93.5z M88.8,68  c0.6-3.2,3.4-20.8,0-30.8l1.1-4.5c2.3,5.3,3.6,11.1,3.6,17.3c0,6.6-1.5,12.8-4.1,18.4L88.8,68z"/><text x="0" y="115" fill="#000000" font-size="5px" font-weight="bold" font-family="'Helvetica Neue', Helvetica, Arial-Unicode, Arial, Sans-serif">Created by parkjisun</text><text x="0" y="120" fill="#000000" font-size="5px" font-weight="bold" font-family="'Helvetica Neue', Helvetica, Arial-Unicode, Arial, Sans-serif">from the Noun Project</text></svg>